<svg id="Layer_1" height="512" viewBox="0 0 512 512" width="512" xmlns="http://www.w3.org/2000/svg" data-name="Layer 1"><g fill-rule="evenodd"><path d="m7.481 191.161 138.165-159.773a2.044 2.044 0 0 1 2.839-.2l204.636 176.981a1.994 1.994 0 0 1 .2 2.84l-138.167 159.773a2.01 2.01 0 0 1 -2.811.2l-204.664-176.982a2.046 2.046 0 0 1 -.2-2.84z" fill="#006694"/><path d="m99.165 115.946 96.454-43.983 157.5 136.206a1.994 1.994 0 0 1 .2 2.84l-138.165 159.773a2.01 2.01 0 0 1 -2.811.2l-9.824-8.489-107.419-235.616a8.252 8.252 0 0 1 4.061-10.931z" fill="#005c85"/><path d="m101.777 121.624 192.171-87.624a2.03 2.03 0 0 1 2.669.993l112.241 246.177a2.049 2.049 0 0 1 -.994 2.669l-192.2 87.624a2.006 2.006 0 0 1 -2.64-.994l-112.241-246.176a2.007 2.007 0 0 1 .994-2.669z" fill="#60b7ff"/><path d="m215.864 91.47h106.506l86.488 189.7a2.049 2.049 0 0 1 -.994 2.669l-192.2 87.624a2.006 2.006 0 0 1 -2.64-.994l-5.424-11.869v-258.867a8.253 8.253 0 0 1 8.263-8.263z" fill="#56a5e6"/><path d="m215.864 97.717h157.274l55.936 55.936v216.618a2 2 0 0 1 -1.987 2.015h-211.223a2.023 2.023 0 0 1 -2.016-2.015v-270.538a2.024 2.024 0 0 1 2.016-2.016z" fill="#eaf6ff"/><path d="m373.138 97.717v43.383a12.592 12.592 0 0 0 12.551 12.55h43.385z" fill="#bec7cf"/><path d="m264.219 288.467h165.081a31.69 31.69 0 0 1 31.574 31.575v129.675a31.671 31.671 0 0 1 -31.574 31.574h-292.627a31.652 31.652 0 0 1 -31.573-31.574v-192.824a25.969 25.969 0 0 1 25.924-25.923h55.141c9.114 0 15.333 5.622 21.863 11.982l34.329 33.533c6.53 6.36 12.749 11.982 21.863 11.982z" fill="#ffba57"/><path d="m429.074 293.777a31.555 31.555 0 0 1 14.141 26.265v129.675a31.671 31.671 0 0 1 -31.574 31.574h17.659a31.671 31.671 0 0 0 31.574-31.574v-129.675a31.626 31.626 0 0 0 -31.574-31.575h-17.659a31.2 31.2 0 0 1 17.433 5.31zm-186.718-17.292-28.508-27.826-5.821-5.707c-6.53-6.36-12.749-11.982-21.863-11.982h-17.664c9.114 0 15.333 5.622 21.863 11.982l23.482 22.942 10.855 10.591c6.53 6.36 12.748 11.982 21.863 11.982h17.661c-9.114 0-15.333-5.622-21.863-11.982z" fill="#e6a74e"/><path d="m445.231 381.685a59.77 59.77 0 1 0 -59.77-59.769 59.881 59.881 0 0 0 59.77 59.769z" fill="#25c73b"/><path d="m440.177 262.345a59.782 59.782 0 0 1 3.038 118.8c-1.022.142-2.016.256-3.038.341.993.085 2.016.142 3.038.17.653.029 1.334.029 2.016.029a59.77 59.77 0 0 0 0-119.539c-1.7 0-3.408.057-5.054.2z" fill="#21b335"/><path d="m416.3 153.653v115.932a59.248 59.248 0 0 1 12.777-5.224v-110.708z" fill="#d3dde6"/></g><path d="m241.67 146.473a7 7 0 0 1 7-7h92.576a7 7 0 1 1 0 14h-92.574a7 7 0 0 1 -7.002-7zm7 41.073h146.207a7 7 0 1 0 0-14h-146.205a7 7 0 0 0 0 14zm146.205 20.039h-146.203a7 7 0 1 0 0 14h146.205a7 7 0 1 0 0-14zm0 34.042h-146.203a7 7 0 1 0 0 14h146.205a7 7 0 1 0 0-14zm73.046 143.307v64.866a38.566 38.566 0 0 1 -38.521 38.516h-292.124a38.566 38.566 0 0 1 -38.522-38.516v-167.98l-96.333-83.31a7 7 0 0 1 -.715-9.876l140.564-162.534a7 7 0 0 1 9.876-.715l50.36 43.563 90.712-41.348a7 7 0 0 1 9.275 3.466l27.5 60.332h43.372a7.009 7.009 0 0 1 4.951 2.05l55.84 55.841a7 7 0 0 1 2.051 4.951v101.945a66.66 66.66 0 0 1 31.718 128.749zm-45.721-125.246v-98.447h-36.31a19.552 19.552 0 0 1 -19.53-19.53v-36.311h-145.012v140.72l26.323 25.733c5.966 5.837 10.672 9.967 16.931 9.967h127.739a66.968 66.968 0 0 1 29.859-22.132zm-41.836-117.977a5.533 5.533 0 0 0 5.527 5.527h26.409l-31.936-31.938zm-87.709-98.465-88.05 40.138a7.062 7.062 0 0 1 -.818.372l-93.887 42.8 44.6 97.867h32.177c8.705 0 15.371 3.963 20.663 8.36v-134.383a7 7 0 0 1 7-7h100.26zm-193.901 220.061v-6a32.932 32.932 0 0 1 32.91-32.88h7.453l-44.862-98.43a7 7 0 0 1 3.467-9.274l90.767-41.377-40.209-34.788-131.403 151.942zm355.166 125a66.557 66.557 0 0 1 -75.257-66.1 66.276 66.276 0 0 1 5.458-26.389h-119.521c-12.454 0-20.7-8.068-26.721-13.958l-28.246-27.61c-.128-.117-.252-.237-.371-.363l-5.621-5.5c-6.178-6.018-10.7-9.967-16.959-9.967h-55.018a18.914 18.914 0 0 0 -18.907 18.88v192.5a24.546 24.546 0 0 0 24.519 24.518h292.124a24.546 24.546 0 0 0 24.52-24.518zm44.08-66.094a52.665 52.665 0 1 0 -52.666 52.665 52.726 52.726 0 0 0 52.666-52.665zm-17.02-26.465a7 7 0 0 0 -9.9 0l-38.08 38.078-13.418-13.417a7 7 0 0 0 -9.9 9.9l18.369 18.367a7 7 0 0 0 9.9 0l43.029-43.026a7 7 0 0 0 0-9.902zm-64.532 134.857h-266.219a7 7 0 0 0 0 14h266.219a7 7 0 0 0 0-14zm-266.219-33.815h68.284a7 7 0 1 0 0-14h-68.284a7 7 0 0 0 0 14z"/></svg>